<svg xmlns="http://www.w3.org/2000/svg" xmlns:xlink="http://www.w3.org/1999/xlink" width="488" height="230" viewBox="0 0 488 230"><defs><style>.a,.d{fill:#fff;}.b{fill:#1482e6;font-size:18px;font-family:AvenirNextLTPro-Bold, Avenir Next LT Pro;font-weight:700;}.c,.e{fill:none;}.c,.d,.e{stroke:#60e3bb;stroke-miterlimit:10;stroke-width:2px;}.e{stroke-linecap:round;}.f,.g{fill:#716aca;}.f,.j{font-size:14px;}.f{font-family:AvenirNextLTPro-Regular, Avenir Next LT Pro;}.h{fill:#60e3bb;}.i{fill:#ebedf2;}.j{fill:#8f9baa;font-family:WorkSans-SemiBold, Work Sans;font-weight:600;}.k{filter:url(#a);}</style><filter id="a" x="0" y="0" width="488" height="230" filterUnits="userSpaceOnUse"><feOffset input="SourceAlpha"/><feGaussianBlur stdDeviation="25" result="b"/><feFlood flood-color="#0086ff" flood-opacity="0.2"/><feComposite operator="in" in2="b"/><feComposite in="SourceGraphic"/></filter></defs><g transform="translate(-877 -136)"><g class="k" transform="matrix(1, 0, 0, 1, 877, 136)"><rect class="a" width="338" height="80" rx="12" transform="translate(75 75)"/></g><text class="b" transform="translate(1260 246.97)"><tspan x="-97.704" y="0">I&apos;m On-Call</tspan></text><g transform="translate(982 239.667)"><path class="c" d="M32.847,60.737a10.871,10.871,0,0,0,5.945,2.821" transform="translate(-28.402 -41.85)"/><path class="d" d="M66.384,54.252a1.769,1.769,0,1,1-3.418-.916L64,49.492a1.769,1.769,0,1,1,3.417.916Z" transform="translate(-43.474 -35.553)"/><path class="d" d="M25.021,54.252a1.769,1.769,0,1,0,3.417-.916l-1.03-3.844a1.769,1.769,0,1,0-3.417.916Z" transform="translate(-23.931 -35.553)"/><circle class="d" cx="1.37" cy="1.37" r="1.37" transform="translate(9.973 20.469)"/><path class="e" d="M26.137,35.582a10.854,10.854,0,1,1,21.4-.066" transform="translate(-24.956 -22.854)"/></g><g transform="translate(1196 257.703)"><text class="f" transform="translate(51 13)"><tspan x="-50.708" y="0">Change</tspan></text><path class="g" d="M4,0,8,5H0Z" transform="translate(64 11) rotate(180)"/></g><circle class="h" cx="7" cy="7" r="7" transform="translate(1138 233.711)"/><g transform="translate(54 -157)"><circle class="i" cx="10" cy="10" r="10" transform="translate(1050 388)"/><text class="j" transform="translate(1060.246 403)"><tspan x="-4.081" y="0">?</tspan></text></g></g></svg>