<svg xmlns="http://www.w3.org/2000/svg" xmlns:xlink="http://www.w3.org/1999/xlink" width="706" height="550" viewBox="0 0 706 550"><defs><style>.a,.j,.l,.m{fill:#fff;}.b,.g{fill:#1482e6;}.c{clip-path:url(#a);}.d{font-size:18px;}.d,.g,.m,.q{font-family:AvenirNextLTPro-Bold, Avenir Next LT Pro;font-weight:700;}.e{fill:#716aca;}.e,.f,.g,.q,.r{font-size:14px;}.e,.f,.h,.l,.r{font-family:AvenirNextLTPro-Regular, Avenir Next LT Pro;}.f,.h,.t{fill:#8390a1;}.h{font-size:12px;}.i,.o{fill:none;stroke-width:2px;}.i{stroke:#bfc9d5;}.j,.k{stroke:#ebedf2;stroke-dasharray:10 0;}.k{fill:#60e3bb;}.l,.m{font-size:10px;}.n{clip-path:url(#b);}.o{stroke:#fb3a5e;stroke-linecap:round;}.p{fill:#fb3a5e;}.q{fill:#4cd4aa;}.s{fill:#e4e5eb;}.t{opacity:0.5;}</style><clipPath id="a"><rect class="a" width="706" height="550" rx="12" transform="translate(683 1520)"/></clipPath><clipPath id="b"><rect class="b" width="84" height="62" rx="10"/></clipPath></defs><g class="c" transform="translate(-683 -1520)"><g transform="translate(15720 -7719)"><rect class="a" width="706" height="963" rx="12" transform="translate(-15037 9239)"/><text class="d" transform="translate(-15017 9276)"><tspan x="0" y="0">Availability</tspan></text><g transform="translate(-14591 9261)"><text class="e" transform="translate(210 13)"><tspan x="-210.21" y="0">+ Add generic weekly availability</tspan></text></g><text class="f" transform="translate(-14908 9275)"><tspan x="0" y="0">GMT-0700</tspan></text><text class="g" transform="translate(-14402 9313)"><tspan x="0" y="0">3.5</tspan></text><text class="f" transform="translate(-14666 9313)"><tspan x="0" y="0">Available Hours:</tspan></text><text class="f" transform="translate(-14503 9313)"><tspan x="0" y="0">Booked Hours</tspan></text><text class="h" transform="translate(-15017 9496)"><tspan x="0" y="0">8:00 AM</tspan></text><text class="h" transform="translate(-15017 9664)"><tspan x="0" y="0">12:00 PM</tspan></text><text class="h" transform="translate(-15017 9832)"><tspan x="0" y="0">16:00 PM</tspan></text><text class="h" transform="translate(-15017 9706)"><tspan x="0" y="0">13:00 PM</tspan></text><text class="h" transform="translate(-15017 9874)"><tspan x="0" y="0">17:00 PM</tspan></text><text class="h" transform="translate(-15017 10042)"><tspan x="0" y="0">21:00 PM</tspan></text><text class="h" transform="translate(-15017 9748)"><tspan x="0" y="0">14:00 PM</tspan></text><text class="h" transform="translate(-15017 9916)"><tspan x="0" y="0">18:00 PM</tspan></text><text class="h" transform="translate(-15017 10084)"><tspan x="0" y="0">22:00 PM</tspan></text><text class="h" transform="translate(-15017 9790)"><tspan x="0" y="0">15:00 PM</tspan></text><text class="h" transform="translate(-15017 9958)"><tspan x="0" y="0">19:00 PM</tspan></text><text class="h" transform="translate(-15017 10126)"><tspan x="0" y="0">23:00 PM</tspan></text><text class="h" transform="translate(-15017 10000)"><tspan x="0" y="0">20:00 PM</tspan></text><text class="h" transform="translate(-15017 9538)"><tspan x="0" y="0">9:00 AM</tspan></text><text class="h" transform="translate(-15017 9580)"><tspan x="0" y="0">10:00 AM</tspan></text><text class="h" transform="translate(-15017 9412)"><tspan x="0" y="0">6:00 AM</tspan></text><text class="h" transform="translate(-15017 9622)"><tspan x="0" y="0">11:00 AM</tspan></text><text class="h" transform="translate(-15017 9454)"><tspan x="0" y="0">7:00 AM</tspan></text><text class="h" transform="translate(-14898 9357)"><tspan x="-12.228" y="0">SUN</tspan><tspan x="-19.83" y="18">30 Aug</tspan></text><text class="h" transform="translate(-14814 9357)"><tspan x="-15" y="0">MON</tspan><tspan x="-19.83" y="18">31 Aug</tspan></text><text class="h" transform="translate(-14730 9357)"><tspan x="-11.232" y="0">TUE</tspan><tspan x="-15.606" y="18">1 Sep</tspan></text><text class="h" transform="translate(-14645 9357)"><tspan x="-13.926" y="0">WED</tspan><tspan x="-15.606" y="18">2 Sep</tspan></text><text class="h" transform="translate(-14561 9357)"><tspan x="-11.322" y="0">THR</tspan><tspan x="-15.606" y="18">3 Sep</tspan></text><text class="h" transform="translate(-14477 9357)"><tspan x="-8.526" y="0">FRI</tspan><tspan x="-15.606" y="18">4 Sep</tspan></text><text class="h" transform="translate(-14393 9357)"><tspan x="-10.644" y="0">SAT</tspan><tspan x="-15.606" y="18">5 Sep</tspan></text><g transform="translate(-15017 9347)"><rect class="a" width="30" height="30" rx="6"/><path class="i" d="M-4530.709,8827.428l-8,8,8,8" transform="translate(4549 -8820)"/></g><g transform="translate(-14977 9347)"><rect class="a" width="30" height="30" rx="6"/><path class="i" d="M-4538.709,8827.428l8,8-8,8" transform="translate(4550 -8820)"/></g><g transform="translate(-15117.5 8004.5)"><rect class="j" width="84" height="21" transform="translate(177 1476)"/><rect class="j" width="84" height="21" transform="translate(177 1812)"/><rect class="j" width="84" height="21" transform="translate(177 1644)"/><rect class="j" width="84" height="21" transform="translate(177 1980)"/><rect class="j" width="84" height="21" transform="translate(177 1560)"/><rect class="j" width="84" height="21" transform="translate(177 1896)"/><rect class="j" width="84" height="21" transform="translate(177 1392)"/><rect class="j" width="84" height="21" transform="translate(177 1728)"/><rect class="j" width="84" height="21" transform="translate(177 2064)"/><rect class="j" width="84" height="21" transform="translate(177 1497)"/><rect class="j" width="84" height="21" transform="translate(177 1833)"/><rect class="j" width="84" height="21" transform="translate(177 1665)"/><rect class="j" width="84" height="21" transform="translate(177 2001)"/><rect class="j" width="84" height="21" transform="translate(177 1581)"/><rect class="j" width="84" height="21" transform="translate(177 1917)"/><rect class="j" width="84" height="21" transform="translate(177 1413)"/><rect class="j" width="84" height="21" transform="translate(177 1749)"/><rect class="j" width="84" height="21" transform="translate(177 2085)"/><rect class="j" width="84" height="21" transform="translate(177 1518)"/><rect class="j" width="84" height="21" transform="translate(177 1854)"/><rect class="j" width="84" height="21" transform="translate(177 1686)"/><rect class="j" width="84" height="21" transform="translate(177 2022)"/><rect class="j" width="84" height="21" transform="translate(177 1602)"/><rect class="j" width="84" height="21" transform="translate(177 1938)"/><rect class="j" width="84" height="21" transform="translate(177 1434)"/><rect class="j" width="84" height="21" transform="translate(177 1770)"/><rect class="j" width="84" height="21" transform="translate(177 2106)"/><rect class="j" width="84" height="21" transform="translate(177 1539)"/><rect class="j" width="84" height="21" transform="translate(177 1875)"/><rect class="j" width="84" height="21" transform="translate(177 1707)"/><rect class="j" width="84" height="21" transform="translate(177 2043)"/><rect class="j" width="84" height="21" transform="translate(177 1623)"/><rect class="j" width="84" height="21" transform="translate(177 1959)"/><rect class="j" width="84" height="21" transform="translate(177 1455)"/><rect class="j" width="84" height="21" transform="translate(177 1791)"/><rect class="j" width="84" height="21" transform="translate(177 2127)"/><rect class="k" width="84" height="21" transform="translate(261 1476)"/><rect class="k" width="84" height="21" transform="translate(261 1812)"/><rect class="k" width="84" height="21" transform="translate(261 1644)"/><rect class="j" width="84" height="21" transform="translate(261 1980)"/><rect class="k" width="84" height="21" transform="translate(261 1560)"/><rect class="j" width="84" height="21" transform="translate(261 1896)"/><rect class="j" width="84" height="21" transform="translate(261 1392)"/><rect class="k" width="84" height="21" transform="translate(261 1728)"/><rect class="j" width="84" height="21" transform="translate(261 2064)"/><rect class="k" width="84" height="21" transform="translate(261 1497)"/><rect class="k" width="84" height="21" transform="translate(261 1833)"/><rect class="k" width="84" height="21" transform="translate(261 1665)"/><rect class="j" width="84" height="21" transform="translate(261 2001)"/><rect class="k" width="84" height="21" transform="translate(261 1581)"/><rect class="j" width="84" height="21" transform="translate(261 1917)"/><rect class="j" width="84" height="21" transform="translate(261 1413)"/><rect class="k" width="84" height="21" transform="translate(261 1749)"/><rect class="j" width="84" height="21" transform="translate(261 2085)"/><rect class="k" width="84" height="21" transform="translate(261 1518)"/><rect class="j" width="84" height="21" transform="translate(261 1854)"/><rect class="k" width="84" height="21" transform="translate(261 1686)"/><rect class="j" width="84" height="21" transform="translate(261 2022)"/><rect class="k" width="84" height="21" transform="translate(261 1602)"/><rect class="j" width="84" height="21" transform="translate(261 1938)"/><rect class="j" width="84" height="21" transform="translate(261 1434)"/><rect class="k" width="84" height="21" transform="translate(261 1770)"/><rect class="j" width="84" height="21" transform="translate(261 2106)"/><rect class="k" width="84" height="21" transform="translate(261 1539)"/><rect class="j" width="84" height="21" transform="translate(261 1875)"/><rect class="k" width="84" height="21" transform="translate(261 1707)"/><rect class="j" width="84" height="21" transform="translate(261 2043)"/><rect class="k" width="84" height="21" transform="translate(261 1623)"/><rect class="j" width="84" height="21" transform="translate(261 1959)"/><rect class="j" width="84" height="21" transform="translate(261 1455)"/><rect class="k" width="84" height="21" transform="translate(261 1791)"/><rect class="j" width="84" height="21" transform="translate(261 2127)"/><rect class="k" width="85" height="21" transform="translate(345 1476)"/><rect class="k" width="85" height="21" transform="translate(345 1812)"/><rect class="k" width="85" height="21" transform="translate(345 1644)"/><rect class="j" width="85" height="21" transform="translate(345 1980)"/><rect class="k" width="85" height="21" transform="translate(345 1560)"/><rect class="j" width="85" height="21" transform="translate(345 1896)"/><rect class="j" width="85" height="21" transform="translate(345 1392)"/><rect class="k" width="85" height="21" transform="translate(345 1728)"/><rect class="j" width="85" height="21" transform="translate(345 2064)"/><rect class="k" width="85" height="21" transform="translate(345 1497)"/><rect class="k" width="85" height="21" transform="translate(345 1833)"/><rect class="k" width="85" height="21" transform="translate(345 1665)"/><rect class="j" width="85" height="21" transform="translate(345 2001)"/><rect class="k" width="85" height="21" transform="translate(345 1581)"/><rect class="j" width="85" height="21" transform="translate(345 1917)"/><rect class="j" width="85" height="21" transform="translate(345 1413)"/><rect class="k" width="85" height="21" transform="translate(345 1749)"/><rect class="j" width="85" height="21" transform="translate(345 2085)"/><rect class="k" width="85" height="21" transform="translate(345 1518)"/><rect class="j" width="85" height="21" transform="translate(345 1854)"/><rect class="k" width="85" height="21" transform="translate(345 1686)"/><rect class="j" width="85" height="21" transform="translate(345 2022)"/><rect class="k" width="85" height="21" transform="translate(345 1602)"/><rect class="j" width="85" height="21" transform="translate(345 1938)"/><rect class="j" width="85" height="21" transform="translate(345 1434)"/><rect class="k" width="85" height="39" transform="translate(345 1770)"/><rect class="j" width="85" height="21" transform="translate(345 2106)"/><rect class="k" width="85" height="21" transform="translate(345 1539)"/><rect class="j" width="85" height="21" transform="translate(345 1875)"/><rect class="k" width="85" height="21" transform="translate(345 1707)"/><rect class="j" width="85" height="21" transform="translate(345 2043)"/><rect class="k" width="85" height="21" transform="translate(345 1623)"/><rect class="j" width="85" height="21" transform="translate(345 1959)"/><rect class="j" width="85" height="21" transform="translate(345 1455)"/><rect class="k" width="85" height="21" transform="translate(345 1791)"/><rect class="j" width="85" height="21" transform="translate(345 2127)"/><rect class="k" width="84" height="21" transform="translate(430 1476)"/><rect class="k" width="84" height="21" transform="translate(430 1812)"/><rect class="k" width="84" height="21" transform="translate(430 1644)"/><rect class="j" width="84" height="21" transform="translate(430 1980)"/><rect class="k" width="84" height="21" transform="translate(430 1560)"/><rect class="j" width="84" height="21" transform="translate(430 1896)"/><rect class="j" width="84" height="21" transform="translate(430 1392)"/><rect class="k" width="84" height="21" transform="translate(430 1728)"/><rect class="j" width="84" height="21" transform="translate(430 2064)"/><rect class="k" width="84" height="21" transform="translate(430 1497)"/><rect class="k" width="84" height="21" transform="translate(430 1833)"/><rect class="k" width="84" height="21" transform="translate(430 1665)"/><rect class="j" width="84" height="21" transform="translate(430 2001)"/><rect class="k" width="84" height="21" transform="translate(430 1581)"/><rect class="j" width="84" height="21" transform="translate(430 1917)"/><rect class="j" width="84" height="21" transform="translate(430 1413)"/><rect class="k" width="84" height="21" transform="translate(430 1749)"/><rect class="j" width="84" height="21" transform="translate(430 2085)"/><rect class="k" width="84" height="21" transform="translate(430 1518)"/><rect class="j" width="84" height="21" transform="translate(430 1854)"/><rect class="k" width="84" height="21" transform="translate(430 1686)"/><rect class="j" width="84" height="21" transform="translate(430 2022)"/><rect class="k" width="84" height="21" transform="translate(430 1602)"/><rect class="j" width="84" height="21" transform="translate(430 1938)"/><rect class="j" width="84" height="21" transform="translate(430 1434)"/><rect class="k" width="84" height="21" transform="translate(430 1770)"/><rect class="j" width="84" height="21" transform="translate(430 2106)"/><rect class="k" width="84" height="21" transform="translate(430 1539)"/><rect class="j" width="84" height="21" transform="translate(430 1875)"/><rect class="k" width="84" height="21" transform="translate(430 1707)"/><rect class="j" width="84" height="21" transform="translate(430 2043)"/><rect class="k" width="84" height="21" transform="translate(430 1623)"/><rect class="j" width="84" height="21" transform="translate(430 1959)"/><rect class="j" width="84" height="21" transform="translate(430 1455)"/><rect class="k" width="84" height="21" transform="translate(430 1791)"/><rect class="j" width="84" height="21" transform="translate(430 2127)"/><rect class="j" width="84" height="21" transform="translate(514 1476)"/><rect class="k" width="84" height="21" transform="translate(514 1812)"/><rect class="k" width="84" height="21" transform="translate(514 1644)"/><rect class="j" width="84" height="21" transform="translate(514 1980)"/><rect class="k" width="84" height="21" transform="translate(514 1560)"/><rect class="j" width="84" height="21" transform="translate(514 1896)"/><rect class="j" width="84" height="21" transform="translate(514 1392)"/><rect class="k" width="84" height="21" transform="translate(514 1728)"/><rect class="j" width="84" height="21" transform="translate(514 2064)"/><rect class="j" width="84" height="21" transform="translate(514 1497)"/><rect class="k" width="84" height="21" transform="translate(514 1833)"/><rect class="k" width="84" height="21" transform="translate(514 1665)"/><rect class="j" width="84" height="21" transform="translate(514 2001)"/><rect class="k" width="84" height="21" transform="translate(514 1581)"/><rect class="j" width="84" height="21" transform="translate(514 1917)"/><rect class="j" width="84" height="21" transform="translate(514 1413)"/><rect class="k" width="84" height="21" transform="translate(514 1749)"/><rect class="j" width="84" height="21" transform="translate(514 2085)"/><rect class="k" width="84" height="21" transform="translate(514 1518)"/><rect class="j" width="84" height="21" transform="translate(514 1854)"/><rect class="k" width="84" height="21" transform="translate(514 1686)"/><rect class="j" width="84" height="21" transform="translate(514 2022)"/><rect class="k" width="84" height="21" transform="translate(514 1602)"/><rect class="j" width="84" height="21" transform="translate(514 1938)"/><rect class="j" width="84" height="21" transform="translate(514 1434)"/><rect class="k" width="84" height="21" transform="translate(514 1770)"/><rect class="j" width="84" height="21" transform="translate(514 2106)"/><rect class="k" width="84" height="21" transform="translate(514 1539)"/><rect class="j" width="84" height="21" transform="translate(514 1875)"/><rect class="k" width="84" height="21" transform="translate(514 1707)"/><rect class="j" width="84" height="21" transform="translate(514 2043)"/><rect class="k" width="84" height="21" transform="translate(514 1623)"/><rect class="j" width="84" height="21" transform="translate(514 1959)"/><rect class="j" width="84" height="21" transform="translate(514 1455)"/><rect class="k" width="84" height="21" transform="translate(514 1791)"/><rect class="j" width="84" height="21" transform="translate(514 2127)"/><rect class="k" width="84" height="21" transform="translate(598 1476)"/><rect class="k" width="84" height="21" transform="translate(598 1812)"/><rect class="k" width="84" height="21" transform="translate(598 1644)"/><rect class="j" width="84" height="21" transform="translate(598 1980)"/><rect class="k" width="84" height="21" transform="translate(598 1560)"/><rect class="j" width="84" height="21" transform="translate(598 1896)"/><rect class="j" width="84" height="21" transform="translate(598 1392)"/><rect class="k" width="84" height="21" transform="translate(598 1728)"/><rect class="j" width="84" height="21" transform="translate(598 2064)"/><rect class="k" width="84" height="21" transform="translate(598 1497)"/><rect class="k" width="84" height="21" transform="translate(598 1833)"/><rect class="k" width="84" height="21" transform="translate(598 1665)"/><rect class="j" width="84" height="21" transform="translate(598 2001)"/><rect class="k" width="84" height="21" transform="translate(598 1581)"/><rect class="j" width="84" height="21" transform="translate(598 1917)"/><rect class="j" width="84" height="21" transform="translate(598 1413)"/><rect class="k" width="84" height="21" transform="translate(598 1749)"/><rect class="j" width="84" height="21" transform="translate(598 2085)"/><rect class="k" width="84" height="21" transform="translate(598 1518)"/><rect class="j" width="84" height="21" transform="translate(598 1854)"/><rect class="k" width="84" height="21" transform="translate(598 1686)"/><rect class="j" width="84" height="21" transform="translate(598 2022)"/><rect class="k" width="84" height="21" transform="translate(598 1602)"/><rect class="j" width="84" height="21" transform="translate(598 1938)"/><rect class="j" width="84" height="21" transform="translate(598 1434)"/><rect class="k" width="84" height="21" transform="translate(598 1770)"/><rect class="j" width="84" height="21" transform="translate(598 2106)"/><rect class="k" width="84" height="21" transform="translate(598 1539)"/><rect class="j" width="84" height="21" transform="translate(598 1875)"/><rect class="k" width="84" height="21" transform="translate(598 1707)"/><rect class="j" width="84" height="21" transform="translate(598 2043)"/><rect class="k" width="84" height="21" transform="translate(598 1623)"/><rect class="j" width="84" height="21" transform="translate(598 1959)"/><rect class="j" width="84" height="21" transform="translate(598 1455)"/><rect class="k" width="84" height="21" transform="translate(598 1791)"/><rect class="j" width="84" height="21" transform="translate(598 2127)"/><rect class="j" width="85" height="21" transform="translate(682 1476)"/><rect class="j" width="85" height="21" transform="translate(682 1812)"/><rect class="j" width="85" height="21" transform="translate(682 1644)"/><rect class="j" width="85" height="21" transform="translate(682 1980)"/><rect class="j" width="85" height="21" transform="translate(682 1560)"/><rect class="j" width="85" height="21" transform="translate(682 1896)"/><rect class="j" width="85" height="21" transform="translate(682 1392)"/><rect class="j" width="85" height="21" transform="translate(682 1728)"/><rect class="j" width="85" height="21" transform="translate(682 2064)"/><rect class="j" width="85" height="21" transform="translate(682 1497)"/><rect class="j" width="85" height="21" transform="translate(682 1833)"/><rect class="j" width="85" height="21" transform="translate(682 1665)"/><rect class="j" width="85" height="21" transform="translate(682 2001)"/><rect class="j" width="85" height="21" transform="translate(682 1581)"/><rect class="j" width="85" height="21" transform="translate(682 1917)"/><rect class="j" width="85" height="21" transform="translate(682 1413)"/><rect class="j" width="85" height="21" transform="translate(682 1749)"/><rect class="j" width="85" height="21" transform="translate(682 2085)"/><rect class="j" width="85" height="21" transform="translate(682 1518)"/><rect class="j" width="85" height="21" transform="translate(682 1854)"/><rect class="j" width="85" height="21" transform="translate(682 1686)"/><rect class="j" width="85" height="21" transform="translate(682 2022)"/><rect class="j" width="85" height="21" transform="translate(682 1602)"/><rect class="j" width="85" height="21" transform="translate(682 1938)"/><rect class="j" width="85" height="21" transform="translate(682 1434)"/><rect class="j" width="85" height="21" transform="translate(682 1770)"/><rect class="j" width="85" height="21" transform="translate(682 2106)"/><rect class="j" width="85" height="21" transform="translate(682 1539)"/><rect class="j" width="85" height="21" transform="translate(682 1875)"/><rect class="j" width="85" height="21" transform="translate(682 1707)"/><rect class="j" width="85" height="21" transform="translate(682 2043)"/><rect class="j" width="85" height="21" transform="translate(682 1623)"/><rect class="j" width="85" height="21" transform="translate(682 1959)"/><rect class="j" width="85" height="21" transform="translate(682 1455)"/><rect class="j" width="85" height="21" transform="translate(682 1791)"/><rect class="j" width="85" height="21" transform="translate(682 2127)"/></g><g transform="translate(-14772 9607)"><rect class="b" width="84" height="83" rx="10"/><text class="l" transform="translate(3 22)"><tspan x="0" y="9">ConveyUX 2020 </tspan><tspan x="0" y="23">- Seattle&apos;s User </tspan><tspan x="0" y="37">Experience </tspan><tspan x="0" y="51">Conference</tspan></text><text class="m" transform="translate(3 14)"><tspan x="0" y="0">11:00-13.00</tspan></text></g><g transform="translate(-14772 9754)"><rect class="b" width="84" height="62" rx="10"/><text class="m" transform="translate(3 14)"><tspan x="0" y="0">14:30-16:00</tspan></text><g class="n"><text class="l" transform="translate(3 22)"><tspan x="0" y="9">26th Annual </tspan><tspan x="0" y="23">Venture Capital </tspan><tspan x="0" y="37">Private Equity </tspan><tspan x="0" y="51">Conference at </tspan><tspan x="0" y="65">HBS</tspan></text></g></g><g transform="translate(-14687 9649)"><rect class="b" width="83" height="62" rx="10"/><text class="m" transform="translate(3 14)"><tspan x="0" y="0">11:30-13:00</tspan></text><g class="n"><text class="l" transform="translate(3 22)"><tspan x="0" y="9">Step by Step </tspan><tspan x="0" y="23">Corporate </tspan><tspan x="0" y="37">Strategy</tspan></text></g></g><line class="o" x2="83" transform="translate(-14771.5 9601)"/><path class="p" d="M-7827-7731h0v-6a3,3,0,0,1,3,3A3,3,0,0,1-7827-7731Z" transform="translate(-6945.5 17335)"/><text class="q" transform="translate(-14551 9313)"><tspan x="0" y="0">39</tspan></text><g transform="translate(-15018 9310)"><text class="r" transform="translate(23 13)"><tspan x="0" y="0">Add Time</tspan></text><text class="r" transform="translate(137 13)"><tspan x="0" y="0">Remove Time</tspan></text><circle class="s" cx="7" cy="7" r="7" transform="translate(0 1)"/><circle class="s" cx="7" cy="7" r="7" transform="translate(114 1)"/><circle class="b" cx="4" cy="4" r="4" transform="translate(3 4)"/></g><path class="t" d="M4,0,8,5H0Z" transform="translate(-14828 9272.703) rotate(180)"/></g></g></svg>