<svg xmlns="http://www.w3.org/2000/svg" width="24.414" height="35.708" viewBox="0 0 24.414 35.708"><defs><style>.a{fill:#009d90;}.b{fill:#d7f8ee;font-size:14px;font-family:AvenirNextLTPro-Bold, Avenir Next LT Pro;font-weight:700;}.c{fill:none;stroke:#009d90;stroke-width:2px;}</style></defs><g transform="translate(0 0)"><path class="a" d="M15,24H3a3,3,0,0,1-3-3V3A3,3,0,0,1,3,0h7.636L18,7.364V21A3,3,0,0,1,15,24Z" transform="translate(5 0)"/><path class="a" d="M15,24H3a3,3,0,0,1-3-3V3A3,3,0,0,1,3,0h7.636L18,7.364V21A3,3,0,0,1,15,24Z" transform="translate(0 4)"/><text class="b" transform="translate(9 21)"><tspan x="-5.103" y="0">A</tspan></text><g transform="translate(23.356 35.001) rotate(180)"><path class="c" d="M3,6,0,3,3,0" transform="translate(0.356)"/><path class="c" d="M0,0H10" transform="translate(0 3.001)"/></g></g></svg>